<svg xmlns="http://www.w3.org/2000/svg" id="Layer_1" style="enable-background:new 0 0 1038 527" version="1.1" viewBox="0 0 1038 527" x="0px" xml:space="preserve" y="0px"><style type="text/css">
	.st0{fill:#FEFEFE;}
	.st1{fill:#F41868;}
	.st2{fill:#32DD88;}
	.st3{fill:#403F3F;}
	.st4{fill:#D31157;}
	.st5{fill:#2DCC7D;}
	.st6{fill:#404040;}
	.st7{fill:#FDFDFD;}
</style><g><path class="st0" d="M18,30c333.33,0,666.67,0,1000,0c0,161.67,0,323.33,0,485c-333.33,0-666.67,0-1000,0
		C18,353.33,18,191.67,18,30z M487.88,169.99c-1.41-1.36-2.62-3.07-4.27-4.02c-54.88-31.69-109.8-63.32-164.74-94.92
		c-19.89-11.44-39.84-22.75-59.77-34.12c-1.44,0.31-3.07,0.28-4.28,0.98c-74.53,42.83-149.01,85.74-223.55,128.55
		c-3.1,1.78-4.39,3.64-4.36,7.34c0.19,22.3,0.07,44.6,0.14,66.91c0,1.67,0.63,3.33,0.97,5c15.69,9.1,31.38,18.19,47.07,27.29
		c-14.76,8.61-29.48,17.31-44.33,25.76c-2.84,1.61-3.86,3.32-3.84,6.61c0.16,22.62,0.07,45.24,0.13,67.86
		c0,1.49,0.63,2.98,0.96,4.47c53.79,30.93,107.57,61.87,161.37,92.78c22.49,12.92,45.03,25.75,67.55,38.62
		c1.29-0.24,2.76-0.14,3.83-0.76c74.97-43.09,149.91-86.25,224.89-129.33c2.47-1.42,3.43-2.95,3.42-5.85
		c-0.13-22.98-0.05-45.96-0.12-68.94c0-1.3-0.67-2.61-1.03-3.91c-15.66-8.94-31.31-17.89-46.97-26.83c2.23-1.43,4.42-2.94,6.71-4.26
		c12.23-7.07,24.54-14.01,36.68-21.25c1.64-0.98,3.48-3.35,3.49-5.09C488.03,218.58,487.92,194.29,487.88,169.99z M890.99,201.29
		c-10.74,0-21.07,0.18-31.38-0.09c-3.97-0.1-5.28,0.98-5.75,5.12c-3.66,32.58-7.66,65.13-11.52,97.69
		c-1.8,15.17-3.53,30.35-5.33,45.78c12.53,0,24.79,0,37.44,0c2.95-25.09,5.89-50.07,8.83-75.04c0.32-0.04,0.65-0.09,0.97-0.13
		c6.23,25.06,12.45,50.13,18.65,75.08c12.43,0,24.52,0,36.62,0c6.33-25.88,12.59-51.47,18.84-77.05c0.3-0.01,0.6-0.01,0.89-0.02
		c3.09,25.69,6.18,51.38,9.28,77.15c12.67,0,24.93,0,37.48,0c-5.95-49.6-11.86-98.93-17.8-148.48c-10.92,0-21.24,0.17-31.55-0.09
		c-3.48-0.09-4.86,1-5.8,4.31c-5.16,18.22-10.57,36.38-15.91,54.55c-4.35,14.81-8.71,29.62-13.38,45.48
		C911.19,270.1,901.1,235.74,890.99,201.29z M574.58,314.97c1.32-2.08,2.25-3.59,3.23-5.07c14.86-22.29,29.43-44.78,44.76-66.75
		c5.34-7.65,8.15-15.2,7.24-24.47c-0.55-5.69-0.1-11.47-0.1-17.18c-34.66,0-68.43,0-102.43,0c0,11.61,0,22.99,0,34.91
		c18.28,0,36.27,0,54.8,0c-1.49,2.3-2.55,3.98-3.65,5.64c-16.35,24.5-32.72,48.99-49.03,73.51c-0.98,1.48-2.25,3.19-2.29,4.81
		c-0.21,9.77-0.11,19.54-0.11,29.38c34.43,0,68.34,0,102.34,0c0-11.63,0-23.01,0-34.78C611.08,314.97,593.18,314.97,574.58,314.97z
		 M716.61,236.26c0,38.12,0,75.82,0,113.52c13.21,0,25.81,0,39.05,0c0-37.91,0-75.59,0-113.74c12.71,0,24.78,0,36.99,0
		c0-11.72,0-22.96,0-34.36c-37.93,0-75.61,0-113.23,0c0,11.64,0,22.9,0,34.58C691.81,236.26,703.91,236.26,716.61,236.26z"></path><path class="st1" d="M487.93,300.31c0.36,1.3,1.02,2.61,1.03,3.91c0.06,22.98-0.01,45.96,0.12,68.94c0.02,2.9-0.94,4.43-3.42,5.85
		c-74.98,43.08-149.92,86.24-224.89,129.33c-1.07,0.61-2.55,0.52-3.84,0.76c0.36-1.88,1.02-3.77,1.03-5.65
		c0.07-23.14,0.04-46.27,0.04-69.41c40.1-23.27,80.22-46.51,120.29-69.82c14.19-8.26,28.28-16.7,42.41-25.06
		c4.52-2.42,9.12-4.71,13.55-7.29C452.17,321.39,470.04,310.83,487.93,300.31z"></path><path class="st2" d="M28.01,245.7c-0.34-1.67-0.97-3.33-0.97-5c-0.07-22.3,0.05-44.61-0.14-66.91c-0.03-3.7,1.27-5.56,4.36-7.34
		c74.54-42.8,149.02-85.72,223.55-128.55c1.21-0.7,2.85-0.67,4.28-0.98c-0.37,1.88-1.05,3.76-1.05,5.64
		c-0.07,23.13-0.05,46.27-0.05,69.4c-46.14,26.76-92.29,53.5-138.41,80.3c-8.16,4.74-16.18,9.72-24.27,14.59
		c-2.05,0.54-4.34,0.67-6.11,1.69C74.19,217.23,59.2,226,44.32,234.92C38.74,238.26,33.44,242.09,28.01,245.7z"></path><path class="st1" d="M28,377.7c-0.33-1.49-0.96-2.98-0.96-4.47c-0.06-22.62,0.03-45.24-0.13-67.86c-0.02-3.29,1-4.99,3.84-6.61
		c14.85-8.45,29.57-17.15,44.33-25.76c22.42-12.9,44.84-25.8,67.26-38.7c1.33-0.67,2.7-1.27,3.99-2.02
		c35.86-20.63,71.71-41.3,107.6-61.88c1.5-0.86,3.42-1,5.14-1.48c-0.36,1.88-1.02,3.77-1.03,5.65c-0.07,23.14-0.04,46.27-0.04,69.41
		c-16.42,9.65-32.83,19.3-49.25,28.95c-22.08,12.75-44.15,25.5-66.23,38.25c-1.74,0.94-3.5,1.84-5.22,2.82
		c-14.01,8.04-28.02,16.09-42.02,24.13c-1.55,0.52-3.24,0.8-4.62,1.61c-16.17,9.44-32.33,18.9-48.41,28.5
		C37.37,371.16,32.75,374.53,28,377.7z"></path><path class="st2" d="M487.88,169.99c0.04,24.29,0.16,48.59-0.03,72.88c-0.01,1.74-1.85,4.11-3.49,5.09
		c-12.14,7.23-24.45,14.17-36.68,21.25c-2.29,1.33-4.48,2.84-6.71,4.26c-22.27,12.8-44.53,25.6-66.8,38.4
		c-20.51,11.7-41.02,23.4-61.53,35.09c-18.2,10.37-36.41,20.74-54.61,31.1c-0.01-25.3-0.02-50.61-0.03-75.91
		c16.62-9.66,33.24-19.31,49.87-28.97c21.48-12.36,42.96-24.72,64.43-37.11c0.54-0.31,0.92-0.91,1.38-1.38
		c0.92-0.32,1.93-0.5,2.76-0.97c14.16-8.19,28.31-16.4,42.44-24.65c0.79-0.46,1.33-1.33,1.99-2.01c2.04-0.55,4.33-0.69,6.08-1.73
		c14.69-8.66,29.24-17.55,43.93-26.21C476.4,175.86,482.2,173.02,487.88,169.99z"></path><path class="st3" d="M890.99,201.29c10.11,34.45,20.2,68.81,30.6,104.25c4.67-15.86,9.03-30.67,13.38-45.48
		c5.34-18.18,10.75-36.33,15.91-54.55c0.94-3.31,2.32-4.4,5.8-4.31c10.31,0.26,20.63,0.09,31.55,0.09
		c5.94,49.55,11.86,98.88,17.8,148.48c-12.55,0-24.81,0-37.48,0c-3.1-25.77-6.19-51.46-9.28-77.15c-0.3,0.01-0.6,0.01-0.89,0.02
		c-6.26,25.58-12.51,51.17-18.84,77.05c-12.1,0-24.19,0-36.62,0c-6.2-24.95-12.42-50.02-18.65-75.08c-0.32,0.04-0.65,0.09-0.97,0.13
		c-2.94,24.97-5.87,49.95-8.83,75.04c-12.65,0-24.91,0-37.44,0c1.79-15.43,3.53-30.61,5.33-45.78c3.86-32.56,7.85-65.1,11.52-97.69
		c0.47-4.14,1.77-5.22,5.75-5.12C869.93,201.46,880.25,201.29,890.99,201.29z"></path><path class="st4" d="M28,377.7c4.75-3.17,9.37-6.54,14.26-9.46c16.08-9.6,32.24-19.06,48.41-28.5c1.38-0.81,3.07-1.09,4.62-1.61
		c1.74,1.23,3.39,2.6,5.22,3.67c52.49,30.76,104.99,61.5,157.49,92.23c0,23.14,0.03,46.27-0.04,69.41
		c-0.01,1.89-0.67,3.77-1.03,5.65c-22.52-12.87-45.06-25.7-67.55-38.62C135.57,439.57,81.79,408.62,28,377.7z"></path><path class="st5" d="M487.88,169.99c-5.68,3.03-11.47,5.87-17.02,9.14c-14.69,8.66-29.24,17.56-43.93,26.21
		c-1.76,1.04-4.04,1.17-6.08,1.73c-0.6-0.27-1.23-0.49-1.8-0.82C365.37,174.83,311.68,143.4,258,111.97
		c0-23.13-0.03-46.27,0.05-69.4c0.01-1.88,0.69-3.76,1.05-5.64c19.93,11.37,39.88,22.69,59.77,34.12
		c54.94,31.6,109.85,63.23,164.74,94.92C485.25,166.92,486.46,168.63,487.88,169.99z"></path><path class="st6" d="M574.58,314.97c18.6,0,36.5,0,54.76,0c0,11.78,0,23.16,0,34.78c-34.01,0-67.91,0-102.34,0
		c0-9.84-0.11-19.61,0.11-29.38c0.04-1.63,1.3-3.33,2.29-4.81c16.32-24.52,32.68-49.01,49.03-73.51c1.1-1.66,2.16-3.34,3.65-5.64
		c-18.52,0-36.52,0-54.8,0c0-11.92,0-23.3,0-34.91c34,0,67.77,0,102.43,0c0,5.71-0.45,11.49,0.1,17.18
		c0.9,9.27-1.91,16.82-7.24,24.47c-15.33,21.96-29.9,44.46-44.76,66.75C576.83,311.38,575.91,312.89,574.58,314.97z"></path><path class="st3" d="M716.61,236.26c-12.7,0-24.8,0-37.19,0c0-11.68,0-22.94,0-34.58c37.61,0,75.3,0,113.23,0
		c0,11.4,0,22.64,0,34.36c-12.2,0-24.28,0-36.99,0c0,38.15,0,75.83,0,113.74c-13.24,0-25.84,0-39.05,0
		C716.61,312.07,716.61,274.38,716.61,236.26z"></path><path class="st5" d="M142.35,234.29c-22.42,12.9-44.84,25.8-67.26,38.7c-15.69-9.1-31.38-18.19-47.07-27.29
		c5.43-3.61,10.72-7.43,16.3-10.78c14.89-8.92,29.87-17.68,44.89-26.37c1.77-1.02,4.06-1.15,6.11-1.69
		C110.99,216,126.67,225.14,142.35,234.29z"></path><path class="st4" d="M374.16,311.87c22.27-12.8,44.53-25.6,66.8-38.4c15.66,8.94,31.31,17.89,46.97,26.83
		c-17.89,10.52-35.76,21.08-53.68,31.55c-4.43,2.58-9.03,4.87-13.55,7.29C405.18,330.06,389.67,320.96,374.16,311.87z"></path><path class="st7" d="M374.16,311.87c15.51,9.09,31.03,18.18,46.54,27.28c-14.13,8.36-28.22,16.81-42.41,25.06
		c-40.07,23.31-80.19,46.55-120.29,69.82c-52.5-30.74-105-61.47-157.49-92.23c-1.83-1.07-3.48-2.44-5.22-3.67
		c14.01-8.05,28.01-16.1,42.02-24.13c1.71-0.98,3.48-1.88,5.22-2.82c10.01,5.89,19.97,11.84,30.03,17.65
		c28.47,16.45,56.97,32.84,85.46,49.25c18.2-10.37,36.41-20.73,54.61-31.1C333.14,335.27,353.65,323.57,374.16,311.87z"></path><path class="st7" d="M142.35,234.29c-15.68-9.14-31.35-18.29-47.03-27.43c8.09-4.87,16.11-9.85,24.27-14.59
		c46.12-26.8,92.27-53.54,138.41-80.3c53.68,31.43,107.36,62.86,161.05,94.29c0.56,0.33,1.2,0.55,1.8,0.82
		c-0.66,0.68-1.21,1.55-1.99,2.01c-14.12,8.25-28.27,16.47-42.44,24.65c-0.83,0.48-1.83,0.66-2.76,0.97
		c-16.41-9.49-32.78-19.03-49.22-28.46c-21.76-12.49-43.57-24.89-65.37-37.33c-1.72,0.48-3.64,0.62-5.14,1.48
		c-35.89,20.58-71.74,41.25-107.6,61.88C145.04,233.01,143.68,233.62,142.35,234.29z"></path><path class="st4" d="M259.08,168.91c21.79,12.44,43.6,24.84,65.37,37.33c16.44,9.43,32.81,18.97,49.22,28.46
		c-0.45,0.47-0.83,1.07-1.38,1.38c-21.47,12.39-42.95,24.74-64.43,37.11c-16.62-9.74-33.23-19.48-49.85-29.22
		c0-23.14-0.03-46.27,0.04-69.41C258.05,172.68,258.72,170.79,259.08,168.91z"></path><path class="st5" d="M258.02,378.07c-28.49-16.41-56.99-32.8-85.46-49.25c-10.05-5.81-20.02-11.76-30.03-17.65
		c22.08-12.75,44.15-25.5,66.23-38.25c1.25,0.81,2.47,1.67,3.75,2.42c15.16,8.95,30.32,17.88,45.48,26.82
		C258,327.46,258.01,352.76,258.02,378.07z"></path><path class="st7" d="M257.99,302.16c-15.16-8.94-30.33-17.87-45.48-26.82c-1.28-0.76-2.5-1.61-3.75-2.42
		c16.41-9.65,32.83-19.3,49.25-28.95c16.62,9.74,33.23,19.48,49.85,29.22C291.23,282.85,274.61,292.5,257.99,302.16z"></path></g></svg>